<svg width="24" height="24" viewBox="0 0 24 24" fill="none" xmlns="http://www.w3.org/2000/svg">
<path fill-rule="evenodd" clip-rule="evenodd" d="M4.71006 3.30169C4.45677 3.04839 4.08759 2.94947 3.74158 3.04218C3.39558 3.13489 3.12532 3.40515 3.03261 3.75116C2.93989 4.09716 3.03882 4.46635 3.29211 4.71964L8.91399 10.3415C8.18365 11.7002 8.43035 13.3769 9.52105 14.4676C10.6118 15.5583 12.2885 15.805 13.6472 15.0747L19.269 20.6966C19.4565 20.8856 19.7118 20.9919 19.978 20.9919C20.2443 20.9919 20.4995 20.8856 20.687 20.6966C20.876 20.5091 20.9824 20.2539 20.9824 19.9876C20.9824 19.7213 20.876 19.4661 20.687 19.2786L4.71006 3.30169ZM11.9896 13.497C11.1623 13.497 10.4917 12.8264 10.4917 11.9991V11.9292L12.0495 13.487L11.9896 13.497ZM21.8453 11.4999C21.2062 10.3915 17.6813 4.82948 11.7199 5.00922C10.614 5.04203 9.52235 5.26847 8.4946 5.67826L10.0723 7.25598C10.6272 7.11002 11.1965 7.02629 11.7699 7.00634C16.0537 6.8965 18.8696 10.5912 19.7583 11.9991C19.1173 13 18.3486 13.913 17.4716 14.7152L18.9795 16.1232C20.1207 15.064 21.0998 13.8427 21.8853 12.4984C22.0515 12.1824 22.0362 11.8016 21.8453 11.4999ZM12.2092 16.9919C7.91544 17.0918 5.0995 13.4071 4.22077 11.9991C4.84634 11.0013 5.59814 10.0884 6.45754 9.28305L4.99964 7.87508C3.8726 8.93702 2.90707 10.1582 2.13378 11.4999C1.95541 11.8088 1.95541 12.1895 2.13378 12.4984C2.76287 13.5868 6.12802 18.989 12.0095 18.989H12.2592C13.3651 18.9562 14.4568 18.7298 15.4845 18.32L13.9068 16.7423C13.352 16.8882 12.7826 16.972 12.2092 16.9919Z" fill="currentColor"/>
</svg>
