<svg width="24" height="24" viewBox="0 0 24 24" fill="none" xmlns="http://www.w3.org/2000/svg">
<path fill-rule="evenodd" clip-rule="evenodd" d="M21.8661 11.5017C21.2263 10.3921 17.7077 4.82434 11.7301 5.00426C6.2023 5.14421 3.00358 10.0023 2.13392 11.5017C1.95536 11.811 1.95536 12.192 2.13392 12.5013C2.76367 13.5909 6.13233 18.9987 12.02 18.9987H12.2699C17.7977 18.8588 21.0064 14.0007 21.8661 12.5013C22.0446 12.192 22.0446 11.811 21.8661 11.5017ZM12.2197 16.9995C7.91143 17.0994 5.10255 13.4109 4.2229 12.0015C5.2225 10.3921 7.83147 7.1034 11.8299 7.00344C16.1182 6.89348 18.9371 10.592 19.8267 12.0015C18.7971 13.6108 16.2181 16.8995 12.2197 16.9995ZM12.0001 8.50288C10.0678 8.50288 8.50146 10.0693 8.50146 12.0015C8.50146 13.9337 10.0678 15.5001 12.0001 15.5001C13.9323 15.5001 15.4987 13.9337 15.4987 12.0015C15.4987 10.0693 13.9323 8.50288 12.0001 8.50288ZM11.9998 13.5009C11.1717 13.5009 10.5004 12.8296 10.5004 12.0015C10.5004 11.1734 11.1717 10.5021 11.9998 10.5021C12.8279 10.5021 13.4992 11.1734 13.4992 12.0015C13.4992 12.8296 12.8279 13.5009 11.9998 13.5009Z" fill="currentColor"/>
</svg>
