<svg width="24" height="24" viewBox="0 0 24 24" fill="none" xmlns="http://www.w3.org/2000/svg">
<path fill-rule="evenodd" clip-rule="evenodd" d="M19.6696 6.24107C19.8779 6.4494 20.0565 6.73214 20.2053 7.08929C20.3541 7.44643 20.4285 7.77381 20.4285 8.07143V20.9286C20.4285 21.2262 20.3243 21.4792 20.116 21.6875C19.9077 21.8958 19.6547 22 19.3571 22H4.35707C4.05945 22 3.80648 21.8958 3.59814 21.6875C3.38981 21.4792 3.28564 21.2262 3.28564 20.9286V3.07143C3.28564 2.77381 3.38981 2.52083 3.59814 2.3125C3.80648 2.10417 4.05945 2 4.35707 2H14.3571C14.6547 2 14.9821 2.0744 15.3392 2.22321C15.6964 2.37202 15.9791 2.5506 16.1874 2.75893L19.6696 6.24107ZM14.7142 3.51786V7.71429H18.9106C18.8362 7.49851 18.7544 7.34598 18.6651 7.2567L15.1718 3.76339C15.0825 3.67411 14.93 3.59226 14.7142 3.51786ZM18.9999 9.14286V20.5714H4.71422V3.42857H13.2856V8.07143C13.2856 8.36905 13.3898 8.62202 13.5981 8.83036C13.8065 9.03869 14.0595 9.14286 14.3571 9.14286H18.9999Z" fill="currentColor"/>
</svg>
