<svg width="130" height="13" viewBox="0 0 130 13" fill="none" xmlns="http://www.w3.org/2000/svg">
<path d="M0.44873 11.4125C0.52373 10.8525 0.59623 10.2925 0.66623 9.73253C0.73623 9.17253 0.81123 8.56503 0.89123 7.91003L1.33373 4.32503C1.41873 3.68003 1.49623 3.07003 1.56623 2.49503C1.63623 1.92003 1.70873 1.32753 1.78373 0.717529H4.28123C4.52123 1.32753 4.74998 1.91128 4.96748 2.46878C5.18498 3.02628 5.40123 3.58003 5.61623 4.13003L6.89123 7.40003H7.05623L8.29373 4.13753C8.50373 3.58253 8.71248 3.03253 8.91998 2.48753C9.12748 1.94253 9.34623 1.35253 9.57623 0.717529H12.0437C12.1187 1.31753 12.1925 1.90503 12.265 2.48003C12.3375 3.05503 12.4162 3.67253 12.5012 4.33253L12.9587 7.93253C13.0387 8.58253 13.115 9.18253 13.1875 9.73253C13.26 10.2825 13.3312 10.8425 13.4012 11.4125H11.0537C10.9637 10.6625 10.8762 9.95003 10.7912 9.27503C10.7062 8.60003 10.6287 7.96753 10.5587 7.37753L10.2437 4.84253H10.0787L9.14873 7.56503C8.92373 8.23503 8.69748 8.89878 8.46998 9.55628C8.24248 10.2138 8.03123 10.8325 7.83623 11.4125H6.20123C6.06123 11.0375 5.90998 10.635 5.74748 10.205C5.58498 9.77503 5.41873 9.33628 5.24873 8.88878C5.07873 8.44128 4.91123 8.00253 4.74623 7.57253L3.71123 4.84253H3.54623L3.23873 7.36253C3.16873 7.95753 3.09248 8.59378 3.00998 9.27128C2.92748 9.94878 2.84123 10.6625 2.75123 11.4125H0.44873Z" fill="white"/>
<path fill-rule="evenodd" clip-rule="evenodd" d="M20.0624 9.59753C19.8549 10.2325 19.6562 10.8375 19.4662 11.4125H21.9412L22.4549 9.65378C22.5019 9.49319 22.5482 9.33444 22.5939 9.17753H26.4457C26.4912 9.33644 26.5371 9.49769 26.5837 9.66128C26.7537 10.2588 26.9187 10.8425 27.0787 11.4125H29.6287C29.4437 10.8425 29.2499 10.245 29.0474 9.62003C28.8449 8.99503 28.6462 8.38753 28.4512 7.79753L27.2587 4.12253C27.0437 3.47253 26.8499 2.88253 26.6774 2.35253C26.5049 1.82253 26.3287 1.27753 26.1487 0.717529H22.9687C22.7937 1.25753 22.6187 1.79378 22.4437 2.32628C22.2687 2.85878 22.0737 3.45753 21.8587 4.12253L20.6512 7.79003C20.4662 8.36003 20.2699 8.96253 20.0624 9.59753ZM25.9164 7.33253H27.0862L27.2962 9.17753H26.4457C26.3253 8.75605 26.2087 8.35105 26.0962 7.96253L25.9164 7.33253ZM25.9164 7.33253H23.1293L24.4462 2.81003H24.6262L25.9164 7.33253ZM23.1293 7.33253L22.9612 7.91003C22.8435 8.31832 22.721 8.74082 22.5939 9.17753H22.0462L22.3087 7.33253H23.1293Z" fill="white"/>
<path d="M35.9788 11.4125C35.9788 10.8375 35.9788 10.28 35.9788 9.74003C35.9788 9.20003 35.9788 8.59503 35.9788 7.92503V4.29503C35.9788 3.60503 35.9788 2.98253 35.9788 2.42753C35.9788 1.87253 35.9788 1.30253 35.9788 0.717529C36.3038 0.717529 36.6875 0.717529 37.13 0.717529C37.5725 0.717529 38.0463 0.717529 38.5513 0.717529C39.0563 0.717529 39.5663 0.717529 40.0813 0.717529C40.9513 0.717529 41.6875 0.813779 42.29 1.00628C42.8925 1.19878 43.35 1.52003 43.6625 1.97003C43.975 2.42003 44.1313 3.03253 44.1313 3.80753C44.1313 4.42253 44.01 4.97503 43.7675 5.46503C43.525 5.95503 43.1363 6.34253 42.6013 6.62753C42.0663 6.91253 41.3663 7.05503 40.5013 7.05503L41.4538 6.15503L42.9088 8.30003C43.1338 8.63003 43.3738 8.98378 43.6288 9.36128C43.8838 9.73878 44.1325 10.1063 44.375 10.4638C44.6175 10.8213 44.8313 11.1375 45.0163 11.4125H42.2188C41.9488 10.9925 41.6888 10.59 41.4388 10.205C41.1888 9.82003 40.9463 9.44503 40.7113 9.08003L38.9788 6.35003L40.4413 7.46753H37.9588V5.70503H39.7438C40.1438 5.70503 40.48 5.65628 40.7525 5.55878C41.025 5.46128 41.2313 5.29503 41.3713 5.06003C41.5113 4.82503 41.5813 4.50253 41.5813 4.09253C41.5813 3.78753 41.5363 3.54128 41.4463 3.35378C41.3563 3.16628 41.235 3.02003 41.0825 2.91503C40.93 2.81003 40.76 2.74003 40.5725 2.70503C40.385 2.67003 40.1963 2.65253 40.0063 2.65253H36.6463L38.4013 1.10753C38.4013 1.71253 38.4013 2.29128 38.4013 2.84378C38.4013 3.39628 38.4013 4.01003 38.4013 4.68503V7.92503C38.4013 8.59503 38.4013 9.20003 38.4013 9.74003C38.4013 10.28 38.4013 10.8375 38.4013 11.4125H35.9788Z" fill="white"/>
<path fill-rule="evenodd" clip-rule="evenodd" d="M51.3588 9.74003V11.4125H53.8188V9.74003V7.92503V6.82253H54.3138L55.7238 8.84003C56.0038 9.24503 56.29 9.65628 56.5825 10.0738C56.875 10.4913 57.1863 10.9375 57.5163 11.4125H60.4938C60.2538 11.0875 59.9763 10.7075 59.6613 10.2725C59.3463 9.83753 59.0225 9.39003 58.69 8.93003C58.3575 8.47003 58.0463 8.04003 57.7563 7.64003L56.3105 5.64137L57.6138 4.03253C58.0588 3.47753 58.5025 2.92753 58.945 2.38253C59.3875 1.83753 59.8413 1.28253 60.3063 0.717529H57.4638C57.0738 1.23253 56.7313 1.68378 56.4363 2.07128C56.1413 2.45878 55.8438 2.84753 55.5438 3.23753L54.2838 4.88753H53.8188V4.29503V2.42753V0.717529H51.3588V2.42753V4.29503V7.92503V9.74003ZM53.8188 4.88753V6.82253H53.6238V4.88753H53.8188Z" fill="white"/>
<path fill-rule="evenodd" clip-rule="evenodd" d="M66.8362 9.74003V11.4125H67.9837H69.1912H70.5412C71.5862 11.4125 72.4712 11.275 73.1962 11C73.9212 10.725 74.5049 10.3425 74.9474 9.85253C75.3899 9.36253 75.7124 8.79128 75.9149 8.13878C76.1174 7.48628 76.2187 6.78253 76.2187 6.02753C76.2187 5.18253 76.1037 4.43128 75.8737 3.77378C75.6437 3.11628 75.3099 2.56003 74.8724 2.10503C74.4349 1.65003 73.8987 1.30503 73.2637 1.07003C72.6287 0.835029 71.9037 0.717529 71.0887 0.717529H69.5924H68.1599H66.8362V2.42753V4.29503V7.92503V9.74003ZM70.5337 9.44003H69.3037V8.45753V7.33253V4.87253V3.70628V2.69003H70.6612C71.1812 2.69003 71.6287 2.76878 72.0037 2.92628C72.3787 3.08378 72.6874 3.30878 72.9299 3.60128C73.1724 3.89378 73.3524 4.24253 73.4699 4.64753C73.5874 5.05253 73.6462 5.50253 73.6462 5.99753C73.6462 6.65253 73.5462 7.24003 73.3462 7.76003C73.1462 8.28003 72.8199 8.69003 72.3674 8.99003C71.9149 9.29003 71.3037 9.44003 70.5337 9.44003Z" fill="white"/>
<path fill-rule="evenodd" clip-rule="evenodd" d="M85.4337 11.1687C86.1387 11.4662 86.9737 11.615 87.9387 11.615C89.1237 11.615 90.1238 11.3725 90.9388 10.8875C91.7537 10.4025 92.3725 9.7425 92.795 8.9075C93.2175 8.0725 93.4288 7.1225 93.4288 6.0575C93.4288 5.2875 93.3137 4.5675 93.0837 3.8975C92.8538 3.2275 92.5075 2.6375 92.045 2.1275C91.5825 1.6175 91.0037 1.21875 90.3088 0.93125C89.6137 0.64375 88.8012 0.5 87.8713 0.5C86.6463 0.5 85.625 0.7475 84.8075 1.2425C83.99 1.7375 83.375 2.40625 82.9625 3.24875C82.55 4.09125 82.3438 5.0325 82.3438 6.0725C82.3438 6.8075 82.455 7.5075 82.6775 8.1725C82.9 8.8375 83.2387 9.42875 83.6938 9.94625C84.1488 10.4637 84.7287 10.8713 85.4337 11.1687ZM89.1987 9.30125C88.8287 9.48875 88.3962 9.5825 87.9012 9.5825C87.4012 9.5825 86.965 9.48875 86.5925 9.30125C86.22 9.11375 85.91 8.85625 85.6625 8.52875C85.415 8.20125 85.2287 7.82625 85.1037 7.40375C84.9787 6.98125 84.9162 6.5325 84.9162 6.0575C84.9162 5.5825 84.9813 5.1325 85.1112 4.7075C85.2413 4.2825 85.4313 3.90625 85.6813 3.57875C85.9313 3.25125 86.2425 2.995 86.615 2.81C86.9875 2.625 87.4162 2.5325 87.9012 2.5325C88.3712 2.5325 88.7888 2.6225 89.1538 2.8025C89.5188 2.9825 89.8275 3.2325 90.08 3.5525C90.3325 3.8725 90.525 4.24625 90.6575 4.67375C90.79 5.10125 90.8562 5.5625 90.8562 6.0575C90.8562 6.5275 90.795 6.97375 90.6725 7.39625C90.55 7.81875 90.3663 8.195 90.1213 8.525C89.8762 8.855 89.5687 9.11375 89.1987 9.30125Z" fill="white"/>
<path d="M101.804 11.4125C101.664 10.8825 101.514 10.3163 101.354 9.71378C101.194 9.11128 101.044 8.55253 100.904 8.03753L100.019 4.67753C99.8587 4.08253 99.685 3.43128 99.4975 2.72378C99.31 2.01628 99.1338 1.34753 98.9688 0.717529H101.751C101.886 1.37253 102.029 2.06128 102.179 2.78378C102.329 3.50628 102.471 4.19253 102.606 4.84253L103.349 8.48003H103.536L104.301 4.79753C104.391 4.37753 104.485 3.93378 104.582 3.46628C104.68 2.99878 104.779 2.53003 104.879 2.06003C104.979 1.59003 105.074 1.14253 105.164 0.717529H107.796C107.936 1.37253 108.082 2.05378 108.235 2.76128C108.387 3.46878 108.536 4.15253 108.681 4.81253L109.476 8.48003H109.656L110.414 4.79003C110.544 4.16003 110.682 3.48253 110.83 2.75753C110.977 2.03253 111.116 1.35253 111.246 0.717529H114.036C113.861 1.35253 113.68 2.02003 113.493 2.72003C113.305 3.42003 113.131 4.06503 112.971 4.65503L112.056 8.03753C111.911 8.56753 111.759 9.13253 111.599 9.73253C111.439 10.3325 111.286 10.8925 111.141 11.4125H108.141C108.001 10.8125 107.854 10.1838 107.699 9.52628C107.544 8.86878 107.399 8.24253 107.264 7.64753L106.469 4.25753H106.281L105.516 7.64753C105.386 8.23753 105.245 8.86503 105.093 9.53003C104.94 10.195 104.796 10.8225 104.661 11.4125H101.804Z" fill="white"/>
<path d="M120.409 11.4125C120.409 10.8375 120.409 10.28 120.409 9.74003C120.409 9.20003 120.409 8.59503 120.409 7.92503V4.29503C120.409 3.60503 120.409 2.98253 120.409 2.42753C120.409 1.87253 120.409 1.30253 120.409 0.717529H122.561C123.061 1.44753 123.534 2.13628 123.979 2.78378C124.424 3.43128 124.869 4.08003 125.314 4.73003L127.054 7.25003H127.234V4.29503C127.234 3.60503 127.234 2.98253 127.234 2.42753C127.234 1.87253 127.234 1.30253 127.234 0.717529H129.551C129.551 1.30253 129.551 1.87253 129.551 2.42753C129.551 2.98253 129.551 3.60503 129.551 4.29503V7.92503C129.551 8.59503 129.551 9.20003 129.551 9.74003C129.551 10.28 129.551 10.8375 129.551 11.4125H127.421C127.011 10.8125 126.581 10.1875 126.131 9.53753C125.681 8.88753 125.189 8.17753 124.654 7.40753L122.891 4.85753H122.719V7.92503C122.719 8.59503 122.719 9.20003 122.719 9.74003C122.719 10.28 122.719 10.8375 122.719 11.4125H120.409Z" fill="white"/>
</svg>
