<svg width="24" height="24" viewBox="0 0 24 24" fill="none" xmlns="http://www.w3.org/2000/svg">
<path fill-rule="evenodd" clip-rule="evenodd" d="M19.045 12.6888C19.3313 12.559 19.6665 12.6037 19.9087 12.8039C20.1728 13.0056 20.2897 13.3464 20.2049 13.6677C19.2658 17.4521 15.8302 20.0811 11.9318 19.9981C8.03345 19.9151 4.71277 17.1423 3.93567 13.3213C3.15856 9.50029 5.13242 5.65074 8.68869 4.05166C8.96779 3.9478 9.28123 4.0029 9.50818 4.19572C9.73513 4.38854 9.84014 4.68897 9.78273 4.98118C9.64985 5.5196 9.58083 6.07179 9.57708 6.62635C9.59967 10.3096 12.5896 13.2848 16.2729 13.2893C17.2295 13.2917 18.1752 13.0868 19.045 12.6888ZM5.8209 13.8216C6.75462 16.4917 9.26556 18.2871 12.0942 18.307V18.3399C14.5697 18.343 16.8434 16.975 18.0003 14.7864C17.4327 14.9088 16.8536 14.9695 16.2729 14.9673C11.6682 14.9628 7.93645 11.2311 7.93191 6.62635V6.40425C5.73213 8.18258 4.88718 11.1514 5.8209 13.8216Z" fill="currentColor"/>
</svg>
