<svg width="24" height="24" viewBox="0 0 24 24" fill="none" xmlns="http://www.w3.org/2000/svg">
<path fill-rule="evenodd" clip-rule="evenodd" d="M15.0111 2.32222L21.6777 8.98887C21.8857 9.19855 22.0017 9.48242 22 9.77775V18.6666C22 20.5076 20.5076 21.9999 18.6666 21.9999H5.33333C3.49238 21.9999 2 20.5076 2 18.6666V5.33332C2 3.49238 3.49238 2 5.33333 2H14.2222C14.3709 2.00278 14.5178 2.03291 14.6555 2.08889C14.788 2.14305 14.9087 2.22228 15.0111 2.32222ZM13.111 4.22232H8.66658V6.44453H13.111V4.22232ZM15.3332 19.7777H8.66658V16.4444C8.66658 15.8307 9.16404 15.3333 9.77769 15.3333H14.2221C14.8358 15.3333 15.3332 15.8307 15.3332 16.4444V19.7777ZM18.6667 19.7778C19.2804 19.7778 19.7778 19.2804 19.7778 18.6667V10.2334L15.3334 5.78898V7.55564C15.3334 8.16929 14.8359 8.66675 14.2223 8.66675H7.55564C6.94199 8.66675 6.44453 8.16929 6.44453 7.55564V4.22232H5.33342C4.71977 4.22232 4.22231 4.71977 4.22231 5.33342V18.6667C4.22231 19.2804 4.71977 19.7778 5.33342 19.7778H6.44453V16.4445C6.44453 14.6036 7.93691 13.1112 9.77786 13.1112H14.2223C16.0632 13.1112 17.5556 14.6036 17.5556 16.4445V19.7778H18.6667Z" fill="currentColor"/>
</svg>
