<svg width="24" height="24" viewBox="0 0 24 24" fill="none" xmlns="http://www.w3.org/2000/svg">
<path fill-rule="evenodd" clip-rule="evenodd" d="M12.0001 4.99999C12.5524 4.99999 13.0001 4.55228 13.0001 3.99999V3C13.0001 2.44771 12.5524 2 12.0001 2C11.4478 2 11.0001 2.44771 11.0001 3V3.99999C11.0001 4.55228 11.4478 4.99999 12.0001 4.99999ZM3.99999 10.9999C4.55228 10.9999 4.99999 11.4477 4.99999 11.9999C4.99999 12.5522 4.55228 12.9999 3.99999 12.9999H3C2.44771 12.9999 2 12.5522 2 11.9999C2 11.4477 2.44771 10.9999 3 10.9999H3.99999ZM4.92995 17.7099L5.63994 16.9999C6.0367 16.6602 6.62813 16.683 6.9975 17.0524C7.36687 17.4217 7.38972 18.0132 7.04994 18.4099L6.33994 19.1199C5.9499 19.5077 5.31998 19.5077 4.92995 19.1199C4.54222 18.7299 4.54222 18.1 4.92995 17.7099ZM18.36 7.04999C18.1737 7.23474 17.9223 7.33889 17.66 7.33999C17.4115 7.32874 17.1762 7.22535 17 7.04999C16.6122 6.65996 16.6122 6.03003 17 5.64L17.66 4.93C17.9043 4.64462 18.2881 4.52032 18.6534 4.60819C19.0187 4.69606 19.3039 4.98128 19.3918 5.34658C19.4796 5.71188 19.3553 6.09561 19.0699 6.33999L18.36 7.04999ZM5.65992 7.05001C5.84618 7.23476 6.09758 7.33891 6.35992 7.34001C6.62572 7.34155 6.8812 7.2372 7.06991 7.05001C7.45764 6.65998 7.45764 6.03005 7.06991 5.64002L6.35992 4.93002C6.10804 4.67457 5.73903 4.57291 5.39187 4.66331C5.04471 4.75372 4.77216 5.02246 4.67687 5.36831C4.58159 5.71416 4.67805 6.08457 4.92992 6.34001L5.65992 7.05001ZM20 10.9999H21C21.5523 10.9999 22 11.4477 22 11.9999C22 12.5522 21.5523 12.9999 21 12.9999H20C19.4477 12.9999 19 12.5522 19 11.9999C19 11.4477 19.4477 10.9999 20 10.9999ZM18.3599 16.9999C17.9696 16.7828 17.4826 16.8509 17.1667 17.1667C16.8509 17.4826 16.7828 17.9696 16.9999 18.3599L17.7099 19.0699C18.1 19.4577 18.7299 19.4577 19.1199 19.0699C19.5077 18.6799 19.5077 18.05 19.1199 17.6599L18.3599 16.9999ZM6.50004 12C6.50004 8.96247 8.96247 6.50004 12 6.50004C15.0353 6.50555 17.4945 8.96475 17.5 12C17.5 15.0376 15.0376 17.5 12 17.5C8.96247 17.5 6.50004 15.0376 6.50004 12ZM11.9999 15.4999C10.5843 15.4999 9.30808 14.6472 8.76634 13.3393C8.22461 12.0314 8.52406 10.526 9.52505 9.52505C10.526 8.52406 12.0314 8.22461 13.3393 8.76634C14.6472 9.30808 15.4999 10.5843 15.4999 11.9999C15.4999 13.9329 13.9329 15.4999 11.9999 15.4999ZM11.0001 20C11.0001 19.4477 11.4478 19 12.0001 19C12.5524 19 13.0001 19.4477 13.0001 20V21C13.0001 21.5523 12.5524 22 12.0001 22C11.4478 22 11.0001 21.5523 11.0001 21V20Z" fill="currentColor"/>
</svg>
